<mxfile host="app.diagrams.net" agent="Mozilla/5.0 (Windows NT 10.0; Win64; x64) AppleWebKit/537.36 (KHTML, like Gecko) Chrome/135.0.0.0 Safari/537.36" version="26.2.14">
  <diagram name="Страница — 1" id="y7QBCDP9J7hG2njsAQEd">
    <mxGraphModel dx="1472" dy="821" grid="1" gridSize="10" guides="1" tooltips="1" connect="1" arrows="1" fold="1" page="1" pageScale="1" pageWidth="1169" pageHeight="827" math="0" shadow="0">
      <root>
        <mxCell id="0" />
        <mxCell id="1" parent="0" />
        <mxCell id="zpH3a3IVRX3j0I1sXUu--1" value="Носимое устройство" style="verticalAlign=top;align=left;spacingTop=8;spacingLeft=2;spacingRight=12;shape=cube;size=10;direction=south;fontStyle=4;html=1;whiteSpace=wrap;" vertex="1" parent="1">
          <mxGeometry x="94" y="251" width="340" height="169" as="geometry" />
        </mxCell>
        <mxCell id="zpH3a3IVRX3j0I1sXUu--4" value="Локальная база данных SQLite" style="shape=cylinder3;whiteSpace=wrap;html=1;boundedLbl=1;backgroundOutline=1;size=15;" vertex="1" parent="1">
          <mxGeometry x="120" y="300" width="80" height="90" as="geometry" />
        </mxCell>
        <mxCell id="zpH3a3IVRX3j0I1sXUu--6" value="Мобильное приложение для пациентов" style="shape=module;align=left;spacingLeft=20;align=center;verticalAlign=top;whiteSpace=wrap;html=1;" vertex="1" parent="1">
          <mxGeometry x="240" y="315" width="130" height="60" as="geometry" />
        </mxCell>
        <mxCell id="zpH3a3IVRX3j0I1sXUu--12" value="Веб-сервер" style="verticalAlign=top;align=left;spacingTop=8;spacingLeft=2;spacingRight=12;shape=cube;size=10;direction=south;fontStyle=4;html=1;whiteSpace=wrap;" vertex="1" parent="1">
          <mxGeometry x="540" y="250" width="510" height="410" as="geometry" />
        </mxCell>
        <mxCell id="zpH3a3IVRX3j0I1sXUu--60" value="" style="html=1;whiteSpace=wrap;fillColor=light-dark(#f5f9ff, #1d293b);strokeColor=#6c8ebf;" vertex="1" parent="1">
          <mxGeometry x="570" y="291" width="190" height="189" as="geometry" />
        </mxCell>
        <mxCell id="zpH3a3IVRX3j0I1sXUu--13" value="Веб-приложение для врача" style="shape=module;align=left;spacingLeft=20;align=center;verticalAlign=top;whiteSpace=wrap;html=1;" vertex="1" parent="1">
          <mxGeometry x="585" y="306" width="130" height="50" as="geometry" />
        </mxCell>
        <mxCell id="zpH3a3IVRX3j0I1sXUu--29" style="rounded=0;orthogonalLoop=1;jettySize=auto;html=1;endArrow=none;startFill=0;startArrow=open;exitX=0.5;exitY=0;exitDx=0;exitDy=0;dashed=1;entryX=0.5;entryY=1;entryDx=0;entryDy=0;" edge="1" parent="1" source="zpH3a3IVRX3j0I1sXUu--41" target="zpH3a3IVRX3j0I1sXUu--13">
          <mxGeometry relative="1" as="geometry">
            <mxPoint x="629.96" y="398" as="sourcePoint" />
            <mxPoint x="653" y="355" as="targetPoint" />
          </mxGeometry>
        </mxCell>
        <mxCell id="zpH3a3IVRX3j0I1sXUu--33" value="" style="ellipse;whiteSpace=wrap;html=1;align=center;aspect=fixed;fillColor=none;strokeColor=none;resizable=0;perimeter=centerPerimeter;rotatable=0;allowArrows=0;points=[];outlineConnect=1;" vertex="1" parent="1">
          <mxGeometry x="575" y="463" width="10" height="10" as="geometry" />
        </mxCell>
        <mxCell id="zpH3a3IVRX3j0I1sXUu--39" value="" style="ellipse;whiteSpace=wrap;html=1;align=center;aspect=fixed;fillColor=none;strokeColor=none;resizable=0;perimeter=centerPerimeter;rotatable=0;allowArrows=0;points=[];outlineConnect=1;" vertex="1" parent="1">
          <mxGeometry x="205" y="444.5" width="10" height="10" as="geometry" />
        </mxCell>
        <mxCell id="zpH3a3IVRX3j0I1sXUu--41" value="API-сервис" style="shape=module;align=left;spacingLeft=20;align=center;verticalAlign=top;whiteSpace=wrap;html=1;" vertex="1" parent="1">
          <mxGeometry x="585" y="405.5" width="130" height="40" as="geometry" />
        </mxCell>
        <mxCell id="zpH3a3IVRX3j0I1sXUu--48" value="" style="ellipse;whiteSpace=wrap;html=1;align=center;aspect=fixed;fillColor=none;strokeColor=none;resizable=0;perimeter=centerPerimeter;rotatable=0;allowArrows=0;points=[];outlineConnect=1;" vertex="1" parent="1">
          <mxGeometry x="785" y="421" width="10" height="10" as="geometry" />
        </mxCell>
        <mxCell id="zpH3a3IVRX3j0I1sXUu--52" value="" style="rounded=0;orthogonalLoop=1;jettySize=auto;html=1;endArrow=halfCircle;endFill=0;endSize=6;strokeWidth=1;sketch=0;startArrow=none;startFill=0;exitX=0.5;exitY=1;exitDx=0;exitDy=0;dashed=1;" edge="1" parent="1" source="zpH3a3IVRX3j0I1sXUu--41">
          <mxGeometry relative="1" as="geometry">
            <mxPoint x="650" y="440" as="sourcePoint" />
            <mxPoint x="649.71" y="463" as="targetPoint" />
            <Array as="points" />
          </mxGeometry>
        </mxCell>
        <mxCell id="zpH3a3IVRX3j0I1sXUu--53" style="edgeStyle=orthogonalEdgeStyle;rounded=0;orthogonalLoop=1;jettySize=auto;html=1;entryX=1;entryY=0.5;entryDx=0;entryDy=0;entryPerimeter=0;dashed=1;endArrow=open;endFill=0;" edge="1" parent="1" source="zpH3a3IVRX3j0I1sXUu--6" target="zpH3a3IVRX3j0I1sXUu--4">
          <mxGeometry relative="1" as="geometry" />
        </mxCell>
        <mxCell id="zpH3a3IVRX3j0I1sXUu--55" value="" style="rounded=0;orthogonalLoop=1;jettySize=auto;html=1;endArrow=oval;endFill=0;sketch=0;sourcePerimeterSpacing=0;targetPerimeterSpacing=0;endSize=10;exitX=0.5;exitY=1;exitDx=0;exitDy=0;startArrow=none;startFill=0;dashed=1;entryX=0.876;entryY=0.379;entryDx=0;entryDy=0;entryPerimeter=0;" edge="1" parent="1">
          <mxGeometry relative="1" as="geometry">
            <mxPoint x="304.8" y="375" as="sourcePoint" />
            <mxPoint x="304.94" y="399.9200000000001" as="targetPoint" />
          </mxGeometry>
        </mxCell>
        <mxCell id="zpH3a3IVRX3j0I1sXUu--56" value="" style="ellipse;whiteSpace=wrap;html=1;align=center;aspect=fixed;fillColor=none;strokeColor=none;resizable=0;perimeter=centerPerimeter;rotatable=0;allowArrows=0;points=[];outlineConnect=1;" vertex="1" parent="1">
          <mxGeometry x="400" y="340" width="10" height="10" as="geometry" />
        </mxCell>
        <mxCell id="zpH3a3IVRX3j0I1sXUu--57" value="" style="rounded=0;orthogonalLoop=1;jettySize=auto;html=1;endArrow=halfCircle;endFill=0;endSize=6;strokeWidth=1;sketch=0;startArrow=none;startFill=0;entryX=1.161;entryY=0.208;entryDx=0;entryDy=0;entryPerimeter=0;dashed=1;exitX=0.068;exitY=0.622;exitDx=0;exitDy=0;exitPerimeter=0;" edge="1" parent="1" source="zpH3a3IVRX3j0I1sXUu--41">
          <mxGeometry relative="1" as="geometry">
            <mxPoint x="594" y="430" as="sourcePoint" />
            <mxPoint x="304.9999999999999" y="400.75" as="targetPoint" />
            <Array as="points">
              <mxPoint x="500" y="430" />
              <mxPoint x="305" y="430" />
            </Array>
          </mxGeometry>
        </mxCell>
        <mxCell id="zpH3a3IVRX3j0I1sXUu--61" value="" style="html=1;whiteSpace=wrap;fillColor=light-dark(#f5f9ff, #1d293b);strokeColor=#6c8ebf;" vertex="1" parent="1">
          <mxGeometry x="570" y="530" width="190" height="110.5" as="geometry" />
        </mxCell>
        <mxCell id="zpH3a3IVRX3j0I1sXUu--14" value="Аналитический сервис" style="shape=module;align=left;spacingLeft=20;align=center;verticalAlign=top;whiteSpace=wrap;html=1;" vertex="1" parent="1">
          <mxGeometry x="585" y="545.5" width="130" height="50" as="geometry" />
        </mxCell>
        <mxCell id="zpH3a3IVRX3j0I1sXUu--51" value="" style="rounded=0;orthogonalLoop=1;jettySize=auto;html=1;endArrow=oval;endFill=0;sketch=0;sourcePerimeterSpacing=0;targetPerimeterSpacing=0;endSize=10;exitX=0.5;exitY=0;exitDx=0;exitDy=0;startArrow=none;startFill=0;dashed=1;" edge="1" parent="1" source="zpH3a3IVRX3j0I1sXUu--14">
          <mxGeometry relative="1" as="geometry">
            <mxPoint x="650" y="485" as="sourcePoint" />
            <mxPoint x="650" y="465" as="targetPoint" />
          </mxGeometry>
        </mxCell>
        <mxCell id="zpH3a3IVRX3j0I1sXUu--62" value="" style="html=1;whiteSpace=wrap;fillColor=light-dark(#f5f9ff, #1d293b);strokeColor=#6c8ebf;" vertex="1" parent="1">
          <mxGeometry x="850" y="360.5" width="170" height="159.5" as="geometry" />
        </mxCell>
        <mxCell id="zpH3a3IVRX3j0I1sXUu--17" style="edgeStyle=orthogonalEdgeStyle;rounded=0;orthogonalLoop=1;jettySize=auto;html=1;endArrow=open;endFill=0;dashed=1;entryX=0;entryY=0.5;entryDx=0;entryDy=0;entryPerimeter=0;" edge="1" parent="1" source="zpH3a3IVRX3j0I1sXUu--13" target="ySfv-MbVegPKH8N5Db8o-1">
          <mxGeometry relative="1" as="geometry" />
        </mxCell>
        <mxCell id="ySfv-MbVegPKH8N5Db8o-1" value="Центральная база данных PostgreSQL" style="shape=cylinder3;whiteSpace=wrap;html=1;boundedLbl=1;backgroundOutline=1;size=15;" parent="1" vertex="1">
          <mxGeometry x="890" y="381" width="90" height="90" as="geometry" />
        </mxCell>
        <mxCell id="zpH3a3IVRX3j0I1sXUu--63" style="rounded=0;orthogonalLoop=1;jettySize=auto;html=1;entryX=0.959;entryY=1.041;entryDx=0;entryDy=0;entryPerimeter=0;endArrow=none;startFill=0;" edge="1" parent="1" target="zpH3a3IVRX3j0I1sXUu--64">
          <mxGeometry relative="1" as="geometry">
            <mxPoint x="434" y="337" as="sourcePoint" />
          </mxGeometry>
        </mxCell>
        <mxCell id="zpH3a3IVRX3j0I1sXUu--64" value="HTTPS / WLAN" style="text;html=1;align=center;verticalAlign=middle;resizable=0;points=[];autosize=1;strokeColor=none;fillColor=none;" vertex="1" parent="1">
          <mxGeometry x="434" y="306" width="110" height="30" as="geometry" />
        </mxCell>
        <mxCell id="zpH3a3IVRX3j0I1sXUu--65" value="" style="shape=image;verticalLabelPosition=bottom;labelBackgroundColor=default;verticalAlign=top;aspect=fixed;imageAspect=0;image=https://img.icons8.com/fluent/512/docker.png;" vertex="1" parent="1">
          <mxGeometry x="730" y="451" width="22" height="22" as="geometry" />
        </mxCell>
        <mxCell id="zpH3a3IVRX3j0I1sXUu--68" value="" style="shape=image;verticalLabelPosition=bottom;labelBackgroundColor=default;verticalAlign=top;aspect=fixed;imageAspect=0;image=https://img.icons8.com/fluent/512/docker.png;" vertex="1" parent="1">
          <mxGeometry x="993" y="489.5" width="22" height="22" as="geometry" />
        </mxCell>
        <mxCell id="zpH3a3IVRX3j0I1sXUu--69" value="Docker-контейнер:&lt;br&gt;БД Веб-приложения" style="text;align=left;fontStyle=1;verticalAlign=middle;spacingLeft=3;spacingRight=3;strokeColor=none;rotatable=0;points=[[0,0.5],[1,0.5]];portConstraint=eastwest;html=1;fontSize=10;" vertex="1" parent="1">
          <mxGeometry x="859" y="485.5" width="80" height="26" as="geometry" />
        </mxCell>
        <mxCell id="zpH3a3IVRX3j0I1sXUu--70" style="edgeStyle=orthogonalEdgeStyle;rounded=0;orthogonalLoop=1;jettySize=auto;html=1;exitX=1;exitY=0.5;exitDx=0;exitDy=0;" edge="1" parent="1" source="zpH3a3IVRX3j0I1sXUu--69" target="zpH3a3IVRX3j0I1sXUu--69">
          <mxGeometry relative="1" as="geometry" />
        </mxCell>
        <mxCell id="zpH3a3IVRX3j0I1sXUu--71" value="Docker-контейнер:&lt;br&gt;Аналитический сервис." style="text;align=left;fontStyle=1;verticalAlign=middle;spacingLeft=3;spacingRight=3;strokeColor=none;rotatable=0;points=[[0,0.5],[1,0.5]];portConstraint=eastwest;html=1;fontSize=10;" vertex="1" parent="1">
          <mxGeometry x="585" y="608.5" width="80" height="26" as="geometry" />
        </mxCell>
        <mxCell id="zpH3a3IVRX3j0I1sXUu--21" style="edgeStyle=orthogonalEdgeStyle;rounded=0;orthogonalLoop=1;jettySize=auto;html=1;entryX=0;entryY=0;entryDx=0;entryDy=60;entryPerimeter=0;endArrow=open;endFill=0;dashed=1;" edge="1" parent="1" source="zpH3a3IVRX3j0I1sXUu--14" target="ySfv-MbVegPKH8N5Db8o-1">
          <mxGeometry relative="1" as="geometry">
            <mxPoint x="770" y="550" as="targetPoint" />
          </mxGeometry>
        </mxCell>
        <mxCell id="zpH3a3IVRX3j0I1sXUu--75" value="" style="shape=image;verticalLabelPosition=bottom;labelBackgroundColor=default;verticalAlign=top;aspect=fixed;imageAspect=0;image=https://img.icons8.com/fluent/512/docker.png;" vertex="1" parent="1">
          <mxGeometry x="732" y="613.5" width="22" height="22" as="geometry" />
        </mxCell>
        <mxCell id="zpH3a3IVRX3j0I1sXUu--76" value="Docker-контейнер:&lt;br&gt;Веб-приложение." style="text;align=left;fontStyle=1;verticalAlign=middle;spacingLeft=3;spacingRight=3;strokeColor=none;rotatable=0;points=[[0,0.5],[1,0.5]];portConstraint=eastwest;html=1;fontSize=10;" vertex="1" parent="1">
          <mxGeometry x="653" y="368.5" width="80" height="26" as="geometry" />
        </mxCell>
      </root>
    </mxGraphModel>
  </diagram>
</mxfile>
